<?xml version="1.0" encoding="utf-8"?>
<!-- Generator: Adobe Illustrator 19.0.0, SVG Export Plug-In . SVG Version: 6.00 Build 0)  -->
<svg version="1.1" id="Layer_1" xmlns="http://www.w3.org/2000/svg" xmlns:xlink="http://www.w3.org/1999/xlink" x="0px" y="0px"
	 viewBox="0 0 361.6 340" style="enable-background:new 0 0 361.6 340;" xml:space="preserve">
<style type="text/css">
	.st0{fill:#F1F2F2;}
</style>
<g>
	<path class="st0" d="M340.7,96.6c-6.4,0.7-12.9,1.3-19.2,0.9c-11.1-0.7-17.8-7-19.9-18c-6.8-34.9-33.3-66.8-81.5-70.9
		c-25.6-2.2-47.4,7-67.1,22.6c-8.6,6.8-11.8,6.9-21.2,1.4c-1.1-0.6-2-1.3-3.1-2c-5.7-3.2-10.3-0.7-10.1,5.8
		c0.3,9.4,3.2,18.1,10.8,24c4.3,3.3,4.1,4.9,2.5,9.3c-9.7,27.3-5.6,59.7,12.1,74.7h0c0,0,9.1,12.3,0,19.1c-9.2,1.3-18.3,3-27.1,5.5
		c-16,4.5-31.5,11-47.1,16.8c-7.9,2.9-15.4,1.4-21.8-2.9c-8.6-5.8-16.5-12.7-24.8-19c-6.3-4.9-11.3-3-12.5,5
		c-2,12.9-1.5,25.9,2.1,38.4c5.3,18.2,11.6,36.1,18,53.9c5.3,14.8,12.1,28.9,22.7,40.9c16.5,18.7,38.4,26.1,62.1,28.6
		c35.1,3.8,70.3,3.5,105.4,1c22.9-1.6,44.9-7.8,64.6-20.4c17.4-11.1,29.9-25.8,32.2-47c1.1-10.3,1.1-20.9,0.4-31.2
		c-1.1-16.3-7.8-30.7-17.8-43.3c-6.8-8.5-15-15.9-22.5-23.9c-2.4-2.5-5-5.4-2.6-9.2c2.3-3.5,4.9-6.2,10.1-5.6
		c16.9,1.8,32.9-1.9,47.8-10.1c11.8-6.5,19.3-16.3,21.6-29.8C356.5,100,351.8,95.4,340.7,96.6z M250,270.5c-11,18-28.5,27-49.3,29.7
		c-5.3,0.7-10.7,0.9-16.1,1.3c-22.9-0.3-44.3-5-61.9-20.9c-12.5-11.3-21.2-25.3-27.9-40.6c-2.9-6.7-5.6-13.5-7.9-20.4
		c-2.1-6.4,1.5-10.2,8-8.1c26.9,8.6,52.1,3.3,77-8.1c8.6-3.9,17.8-7.6,27.1-8.8c19.6-2.6,36.7,3.6,48.4,20.3
		C259.5,232.6,261.3,252,250,270.5z M259.7,101.4c-6.2-0.1-11.6-5.8-11.3-12c0.3-6.1,5.6-11,11.8-10.8c6.2,0.2,11.2,5.4,11,11.5
		C271,96.2,265.7,101.5,259.7,101.4z M332.2,129.6c-11,7.7-23.6,11.1-36.8,11.6c-5.8,0.2-11.8-0.7-17.5-2c-4-0.9-8.3-2.7-8.4-7.9
		c-0.1-5,3.4-7.4,7.5-9.1c7.5-3.1,12.6-7.8,15.5-15.8h0c0,0,0,0.1,0,0c0,0,0,0,0,0c0.6-1.4,4.2-9.4,10.5-5.6c0,0,0,0,0,0
		c12.3,9.5,26.9,7.3,42,5.6C344.6,116.6,340,124.1,332.2,129.6z"/>
	<path id="XMLID_5_" class="st0" d="M216.3,205.2c-13.2-3.3-25.5-0.4-37.4,5.5c-21.2,10.6-43.3,17.2-67.4,14.3
		c-4.1-0.5-8.2-1.2-12.5-1.8c1.2,7.2,4,12.4,11.8,13.1c2.6,0.3,5.1,1.1,7.7,1.3c0.7,0.1,1.5,0.1,2.2,0.1c6.7,0.8,20.5,3.1,21.7,9.7
		c0,0.4,0.1,0.8,0.1,1.2c-11.4-0.5-22.2-1-32.9-1.5c2.4,9,8.7,13,17.8,13.4c3.1,0.2,6.2,0.3,9.3,0.5c5.9,1.3,12.1,3.5,13.7,7.4
		c0,0.8,0.1,1.5,0.1,2.3c-8,0-15.4,0-24.2,0c8.8,8.3,17.9,14,28.5,16.8c16.4,4.3,33.1,4.9,49.7,1.9c15.4-2.8,28.4-10.5,36.8-23.7
		C255.9,243,242.6,211.8,216.3,205.2z"/>
</g>
</svg>
